# Blender 4.4.1
# www.blender.org
mtllib cross_cubes_quads.mtl
o Cube
v 1.000000 1.000000 -1.000000
v 1.000000 -1.000000 -1.000000
v 1.000000 1.000000 1.000000
v 1.000000 -1.000000 1.000000
v -1.000000 1.000000 -1.000000
v -1.000000 -1.000000 -1.000000
v -1.000000 1.000000 1.000000
v -1.000000 -1.000000 1.000000
v 1.000000 3.000000 -1.000000
v 1.000000 3.000000 1.000000
v -1.000000 3.000000 -1.000000
v -1.000000 3.000000 1.000000
v 3.000000 1.000000 -1.000000
v 3.000000 1.000000 1.000000
v 3.000000 3.000000 -1.000000
v 3.000000 3.000000 1.000000
v 1.000000 1.000000 3.000000
v -1.000000 1.000000 3.000000
v 1.000000 3.000000 3.000000
v -1.000000 3.000000 3.000000
v 1.000000 1.000000 -3.000000
v -1.000000 1.000000 -3.000000
v 1.000000 3.000000 -3.000000
v -1.000000 3.000000 -3.000000
v -3.000000 1.000000 -1.000000
v -3.000000 1.000000 1.000000
v -3.000000 3.000000 -1.000000
v -3.000000 3.000000 1.000000
v 1.000000 5.000000 -1.000000
v 1.000000 5.000000 1.000000
v -1.000000 5.000000 -1.000000
v -1.000000 5.000000 1.000000
vn -0.0000 -1.0000 -0.0000
vn -0.0000 -0.0000 1.0000
vn -1.0000 -0.0000 -0.0000
vn -0.0000 -0.0000 -1.0000
vn 1.0000 -0.0000 -0.0000
vn -0.0000 1.0000 -0.0000
vt 0.625000 0.250000
vt 0.625000 0.000000
vt 0.375000 0.750000
vt 0.625000 0.750000
vt 0.625000 1.000000
vt 0.375000 1.000000
vt 0.375000 0.000000
vt 0.375000 0.250000
vt 0.125000 0.500000
vt 0.375000 0.500000
vt 0.125000 0.750000
vt 0.625000 0.500000
vt 0.000000 0.000000
vt 0.875000 0.750000
vt 0.875000 0.500000
s 0
usemtl Material
f 5/1/1 7/2/1 26/2/1 25/1/1
f 4/3/2 3/4/2 7/5/2 8/6/2
f 8/7/3 7/2/3 5/1/3 6/8/3
f 6/9/1 2/10/1 4/3/1 8/11/1
f 6/8/4 5/1/4 1/12/4 2/10/4
f 10/4/5 9/12/5 29/12/5 30/4/5
f 10/4/2 3/4/2 14/4/2 16/4/2
f 1/12/1 5/1/1 22/1/1 21/12/1
f 12/2/3 7/2/3 18/2/3 20/2/3
f 2/10/5 1/13/5 3/4/5 4/3/5
f 14/13/5 13/13/5 15/13/5 16/13/5
f 9/12/6 10/4/6 16/4/6 15/12/6
f 3/4/1 1/13/1 13/13/1 14/4/1
f 1/12/4 9/12/4 15/12/4 13/12/4
f 18/5/2 17/4/2 19/4/2 20/5/2
f 10/4/6 12/14/6 20/14/6 19/4/6
f 3/4/5 10/4/5 19/4/5 17/4/5
f 7/5/1 3/4/1 17/4/1 18/5/1
f 21/12/4 22/1/4 24/1/4 23/12/4
f 5/1/3 11/1/3 24/1/3 22/1/3
f 11/15/6 9/12/6 23/12/6 24/15/6
f 9/12/5 1/12/5 21/12/5 23/12/5
f 25/1/3 26/2/3 28/2/3 27/1/3
f 7/2/2 12/2/2 28/2/2 26/2/2
f 12/14/6 11/15/6 27/15/6 28/14/6
f 11/1/4 5/1/4 25/1/4 27/1/4
f 29/12/6 31/15/6 32/14/6 30/4/6
f 11/15/3 12/14/3 32/14/3 31/15/3
f 12/14/2 10/4/2 30/4/2 32/14/2
f 9/12/4 11/15/4 31/15/4 29/12/4
